<svg data-name="Layer 1" xmlns="http://www.w3.org/2000/svg" viewBox="0 0 48 48"><path d="M12.74 45.76c-5.69 0-9.09-13.48-9.74-16.18l2-.45c1.68 7.27 4.89 14.63 7.77 14.63zM17.59 40.23a1 1 0 0 1-.9-.58l-3-6.46a1 1 0 0 1 1.81-.84l3 6.46a1 1 0 0 1-.5 1.33 1 1 0 0 1-.41.09z"/><path d="M19.52 45.76h-7a3.72 3.72 0 0 1-2.82-1.31 1 1 0 1 1 1.53-1.29 1.7 1.7 0 0 0 1.29.6h7a1.7 1.7 0 0 0 1.7-1.7v-.13a1.7 1.7 0 0 0-1.7-1.7h-1.93a1 1 0 1 1 0-2h1.93a3.7 3.7 0 0 1 3.7 3.7v.13a3.7 3.7 0 0 1-3.7 3.7zM15.58 33.77H8.37a5.53 5.53 0 0 1-5.52-5.53v-8.48a5.53 5.53 0 0 1 5.52-5.53h7.21zM8.37 16.23a3.53 3.53 0 0 0-3.52 3.53v8.48a3.53 3.53 0 0 0 3.52 3.53h5.21V16.23z"/><path d="m14.61 16.23-.07-2C21 14 31.31 11.31 34.06 5.93l1.78.91c-3.3 6.45-14.77 9.16-21.23 9.39z"/><path d="M38.36 46.76c-4.47 0-6.81-11.45-6.81-22.76s2.34-22.76 6.81-22.76S45.15 12.69 45.15 24s-2.34 22.76-6.79 22.76zm0-43.52c-2 0-4.81 8.08-4.81 20.76s2.85 20.76 4.81 20.76 4.79-8.08 4.79-20.76-2.84-20.76-4.79-20.76z"/><path d="m32.71 29.5-.06-2a3.5 3.5 0 0 0 0-7l.06-2a5.5 5.5 0 0 1 0 11zM34.06 42.07C31.3 36.69 21 34 14.54 33.77l.07-2c6.45.21 17.93 2.94 21.23 9.39z"/></svg>